# xmcd
#
# Track frame offsets: 
#        150
#        29234
#        51476
#        81873
#        118785
#        144783
#        167292
#        195794
#        213515
#        243080
#        264741
#        281667
#        309605
#
# Disc length: 4356 seconds
#
# Revision: 1
# Processed by: cddbd v1.5.1PL0 Copyright (c) Steve Scherf et al.
# Submitted via: ExactAudioCopy v0.95b1
#
DISCID=b711020d
DTITLE=Various Artist - Loop Magazin - The Compilation CD2
DYEAR=2003
DGENRE=Deep House
TTITLE0=Majbour - Perucion
TTITLE1=Readymade F.C. - F.Me (Part 2)
TTITLE2=Spook feat Rosin Murphy - Feel Up (Salt City Orchestra Wednesd
TTITLE2=ay Remix)
TTITLE3=Âme - Life Changes
TTITLE4=Duplex Inc. feat. Barbara Padron Hernandez - Tócame
TTITLE5=Ursula Bucker - Release
TTITLE6=Zimpala - The Breeze Is Black
TTITLE7=Swag feat. Nesreen Shah - So Close
TTITLE8=Eastenders - Misterio (Kabuki Remix)
TTITLE9=Junkie XL - Don't Wake Up The Policeman (Feat. Peter Tosh and Fr
TTITLE9=iends)
TTITLE10=D:Exter - Things Have Changed (Radio Mix)
TTITLE11=Q-Burns Abstract Message - Shame (Hakan Lidbo Remix)
TTITLE12=Sascha Appel - La Fantasia
EXTD=
EXTT0=
EXTT1=
EXTT2=
EXTT3=
EXTT4=
EXTT5=
EXTT6=
EXTT7=
EXTT8=
EXTT9=
EXTT10=
EXTT11=
EXTT12=
PLAYORDER=
